<svg xmlns="http://www.w3.org/2000/svg" width="128" height="128" viewBox="0 0 128 128">
  <path fill="none" stroke="currentColor" stroke-width="5" stroke-linecap="round" d="M122 88.7c-6.5 14.3-18.4 26-33.3 31.2-13.8 4.8-28.7 5.6-42.6.6C32.9 115.8 23 106.3 15.2 95c-16-23.1-9.6-59.4 12-76.8m94.3 20.6C109.3 10.6 72.3-4.4 44 7.7m.6 4.9c.1.3.1.6 0 .9v.9c-.1.3-.1.6-.2.9 0 .3-.1.5-.2.8l-.4.8c-.1.3-.3.5-.5.8-.1.2-.3.4-.5.7-.2.2-.4.4-.7.6-.2.2-.4.4-.7.6-.2.1-.4.3-.7.5l-.8.4c-.3.1-.5.2-.8.3-.3.1-.5.2-.8.3-.3.1-.5.2-.8.3-.3.1-.6.1-.9.1-.3.1-.6.1-.9.1-.3.1-.6.1-.9 0H34c-.3-.1-.6-.1-.9-.2l-.9-.3c-.3-.1-.5-.2-.8-.4l-.8-.4c-.3-.2-.5-.4-.7-.6-.3-.2-.5-.4-.7-.6s-.4-.4-.6-.7c-.1-.2-.3-.4-.5-.7l-.4-.8c-.1-.3-.3-.6-.4-.9l-.2-.8c-.1-.3-.1-.6-.2-.9-.1-.3-.1-.6-.1-.9 0-.3 0-.6-.1-.9v-.9c0-.3 0-.5.1-.8 0-.3 0-.6.1-.9.1-.3.1-.6.2-.9.1-.3.3-.5.5-.8.1-.2.3-.4.5-.7.2-.2.4-.4.6-.7l.6-.6.6-.6c.3-.2.5-.4.7-.6.3-.1.5-.3.7-.5l.8-.4c.6-.2 1.2-.3 1.8-.4.5-.1 1.1-.2 1.7-.2.6 0 1.2.1 1.8.2.6.1 1.2.2 1.7.4l.8.4c.3.1.5.3.8.5.2.1.4.3.7.5l.6.6c.2.2.4.4.6.7.2.2.4.4.5.7.2.3.4.5.5.8.1.3.2.5.3.8.1.3.3.6.4.9l.2.8c.1.3.1.6.1.9.1.3.1.6 0 .9z"/>
  <path d="M32.7 30.3h6c.2 0 .5.1.8.2h1.1c.1 0 .3.1.5.2.1 0 .2.1.3.2.1 0 .2.1.3.2l.3.3.2.2V33c0 .1-.1.2-.2.3 0 .3-.2.8-.2 1.1-.1 1.4-.3 2.7-.5 4.1-.1 1.4-.2 2.8-.3 4.3v4c-.1 1.4-.2 2.7-.2 4.1 0 1.6-.2 4.1-.2 7.6l.2 11.6c0 1 .2 1.9.2 3l.2 3.8c.2 3.3.2 5.7.2 7.3v.6c.1.1.1.3 0 .5v.7c0 .1-.1.3-.2.5v.6c-.2.1-.2.2-.2.4v1.1l.2 5.2c0 .8.2 1.7.2 2.9.1.2.1.4 0 .5v.5l-.4.3-.3.3c-.1.1-.3.2-.5.2-.1 0-.3.1-.5.2h-.5c-.2-.1-.4-.2-.6-.2h-8.7c-1 0-1.6-.2-1.7-.6 0-.2-.1-.4-.2-.5 0-.2-.1-.4-.2-.6v-.6c-.1-.2-.2-.4-.2-.6v-1.7c0-.3.1-.6.2-.8v-1c.1-.3.2-.7.2-1.1.1-.4.2-.8.2-1.1v-2.4c0-.5.2-4.8.6-12.8.3-6 .6-9.2.6-9.8l.2-9.4.2-8.7.2-5.1.2-3.5v-4c0-2.5.6-3.6 1.9-3.6h.2c.1 0 .2-.1.3-.2l.1-.1zm32.1 5.1c.2.6.4 1.3.5 1.9.2.5.4 1.1.5 1.7.2.6.4 1.2.6 1.7.2.6.4 1.2.6 1.7 1.1 3 2.4 5.7 3.3 7.9l1 1.9c.3.5.6 1.1 1 1.7.3.6.6 1.3.8 1.9.3.6.6 1.3.8 1.9 1.4 3.5 2.5 6 3.2 8.1.3 1 1 2.2 1.6 3.8l1.4 3.5 2.1 4.4c1.9-3.6 3.2-6.2 4-7.9l10.5-20.9c2.2-4.6 3.6-7.4 4.4-8.9 1.3-2.5 2.5-4.8 3.8-6.8 1.3-2.1 2.2-3.2 2.9-3.2.6 0 .8.5.8 1.3v.8c0 .2-.1.5-.2.8 0 .2-.1.5-.2.8 0 .2-.1.4-.2.6l-.3 2.4c-.3 1.7-.3 9.4-.3 22.8 0 3-.2 6.7-.2 10.8 0 4.1-.3 7.1-.5 8.4-.2 1.6-.2 4.1-.2 7.3l.2 9.2v.5c0 .8-.2 1.1-.6 1h-.6c-.1.1-.2.2-.3.2h-.3c-.5 0-.8.2-1.3.2h-.2l-.2-.2-.2-.2v-.2c0-.3-.2-.6-.2-1.3v-5.5c0-6.5 0-10.3.2-11.4.2-1.1.3-3.8.5-7.4.2-3.6.2-6.5.2-8.7 0-.6 0-2.4.2-5.4l.2-3.5.2-6.8c-.1.2-.2.4-.3.5-.1.2-.2.4-.3.5-.1.2-.2.4-.2.6-.1.1-.2.3-.3.5-.1.3-.3.6-.5 1-.1.2-.3.5-.5.8l-.3 1c-.2.2-.4.5-.5.8l-1 1.9c-1.1 2.1-2.4 4.6-3.6 7.4-1.3 2.9-2.5 5.2-3.6 7.1-1.1 2.2-2.5 5.2-4.3 8.9-1.7 3.6-3 6.5-4.1 8.6-1.6 3.8-2.5 5.9-2.9 5.9-.3 0-.5-.3-.8-1 0-.1-.1-.2-.2-.3 0-.1-.1-.2-.2-.3-.1-.1-.2-.2-.2-.3l-.3-.3c-.2-.3-.4-.7-.5-1.1-.2-.3-.4-.7-.6-1.1-.1-.3-.3-.7-.5-1.1-.1-.3-.3-.7-.5-1.1-.2-.4-.4-.9-.6-1.4-.3-.8-.4-1.3-.5-1.8-.2-.4-.4-.9-.6-1.4-.1-.5-.3-1.1-.5-1.6-.3-.8-.7-1.6-1.1-2.4-.4-.8-.8-1.7-1.1-2.5-.4-.7-.8-1.5-1.3-2.4-.4-.7-.9-1.5-1.4-2.4-2.2-4.4-3.5-6.7-3.5-6.8-.6-1.3-1.4-3.3-2.5-6.3-.6-1.6-1.3-3-1.6-4.1l-.2 4.1-.2 6.5-.2 18.7-.2 14.9c0 .6-.2 1-.5 1.1l-.2.2H60l-2.1.2c-.2 0-.4.1-.6.2h-1.9c-1 0-1.4-.2-1.7-.6v-.6c-.1-.2-.2-.4-.2-.6v-1.3c0-2.1 0-4.1-.2-6l-.2-11.7c0-1.7 0-3.6.2-5.5s.2-3.6.3-5.2c.3-4.6.5-7.8.5-9.7l.2-17.9-.2-5.1v-1.9c.1-.3.2-.6.2-1l.3-1c.1 0 .2-.1.2-.2h.2c.1 0 .2-.1.2-.2h.6c0 .1.1.2.2.2.1.1.2.2.3.2h1.1c.6 0 1.4-.2 2.4-.2h1.4c.2 0 .4.1.6.2h.6c.6.2 1 .6 1.3 1.4l.3.6c0 .2.1.4.2.6 0 .2.1.4.2.6v1.1c.1.1.2.3.2.5v.5c.1 0 .2.1.2.2z"/>
</svg>
