<svg xmlns="http://www.w3.org/2000/svg" width="210" height="128" version="1.2" viewBox="0 0 210 128">
  <path fill="none" stroke="currentColor" stroke-width="4" stroke-linecap="round" d="M118.2 88.7c-6.5 14.3-18.4 26-33.3 31.2-13.8 4.8-28.7 5.6-42.6.6-13.2-4.7-23.1-14.2-30.9-25.5-16-23.1-9.6-59.4 12-76.8m94.3 20.6C105.5 10.6 68.5-4.4 40.2 7.7M40.8 12.6q.1.5 0 .9v.9q-.1.4-.2.9 0 .4-.2.8l-.4.8q-.2.4-.5.8-.2.3-.5.7-.3.3-.7.6-.3.3-.7.6-.3.2-.7.5l-.8.4q-.4.2-.8.3-.4.2-.8.3-.4.2-.8.3-.5.1-.9.1-.4.1-.9.1-.4.1-.9 0h-.8q-.5-.1-.9-.2-.5-.1-.9-.3-.4-.1-.8-.4l-.8-.4q-.4-.3-.7-.6-.4-.3-.7-.6-.3-.3-.6-.7-.2-.3-.5-.7l-.4-.8q-.2-.5-.4-.9l-.2-.8q-.1-.5-.2-.9t-.1-.9-.1-.9v-.9q0-.4.1-.8 0-.5.1-.9.1-.5.2-.9.2-.4.5-.8.2-.3.5-.7.3-.3.6-.7l.6-.6.6-.6q.4-.3.7-.6.4-.2.7-.5l.8-.4q.9-.3 1.8-.4.8-.2 1.7-.2.9 0 1.8.2.9.1 1.7.4l.8.4q.4.2.8.5.3.2.7.5l.6.6q.3.3.6.7.3.3.5.7.3.4.5.8t.3.8q.2.4.4.9l.2.8q.1.5.1.9.1.5 0 .9z"/>
  <path fill="currentColor" d="M30.5 42.5h3.8q.2 0 .5.1h.7q.1 0 .3.1.1 0 .2.1.1 0 .2.1l.2.2.1.1v.9q0 .1-.1.2c0 .2-.1.5-.1.7q-.1 1.3-.3 2.6-.1 1.3-.2 2.7-.1 1.3-.1 2.6-.1 1.3-.1 2.6c0 1-.1 2.6-.1 4.8l.1 7.3c0 .6.1 1.2.1 1.9l.1 2.4c.1 2.1.1 3.6.1 4.6v.4q.1.1 0 .3v.4q0 .1-.1.3v.4q-.1.1-.1.3v.7l.1 3.3c0 .5.1 1.1.1 1.8q.1.2 0 .3v.3l-.2.2-.2.2q-.1.1-.3.1-.1 0-.3.1h-.3q-.2-.1-.4-.1h-5.5c-.6 0-1-.1-1.1-.4q0-.2-.1-.3 0-.2-.1-.4V84q-.1-.2-.1-.4v-1.1q0-.3.1-.5v-.6q.1-.3.1-.7.1-.4.1-.7v-1.5c0-.3.1-3 .4-8.1.2-3.8.4-5.8.4-6.2l.1-5.9.1-5.5.1-3.2.1-2.2v-2.5c0-1.6.4-2.3 1.2-2.3h.1q.1 0 .2-.1h.2zm20.2 3.2q.2.6.3 1.2.2.5.3 1.1.2.6.4 1.1.2.6.4 1.1c.7 1.9 1.5 3.6 2.1 5l.6 1.2q.3.5.6 1.1.3.6.5 1.2.3.6.5 1.2c.9 2.2 1.6 3.8 2 5.1.2.6.6 1.4 1 2.4l.9 2.2 1.3 2.8c1.2-2.3 2-3.9 2.5-5l6.6-13.2c1.4-2.9 2.3-4.7 2.8-5.6.8-1.6 1.6-3 2.4-4.3.8-1.3 1.4-2 1.8-2 .4 0 .5.3.5.8v.5q0 .2-.1.5 0 .2-.1.5 0 .2-.1.4l-.2 1.5c-.2 1.1-.2 5.9-.2 14.4 0 1.9-.1 4.2-.1 6.8 0 2.6-.2 4.5-.3 5.3-.1 1-.1 2.6-.1 4.6l.1 5.8v.3c0 .5-.1.7-.4.6h-.4q-.1.1-.2.1h-.2c-.3 0-.5.1-.8.1H75l-.1-.1-.1-.1v-.1c0-.2-.1-.4-.1-.8v-3.5c0-4.1 0-6.5.1-7.2.1-.7.2-2.4.3-4.7.1-2.3.1-4.1.1-5.5 0-.4 0-1.5.1-3.4l.1-2.2.1-4.3q-.1.2-.2.3-.1.2-.2.3-.1.2-.1.4-.1.1-.2.3-.1.3-.3.6-.1.2-.3.5l-.2.6q-.2.2-.3.5l-.6 1.2c-.7 1.3-1.5 2.9-2.3 4.7-.8 1.8-1.6 3.3-2.3 4.5-.7 1.4-1.6 3.3-2.7 5.6s-1.9 4.1-2.6 5.4c-1 2.4-1.6 3.7-1.8 3.7-.2 0-.3-.2-.5-.6q0-.1-.1-.2 0-.1-.1-.2t-.1-.2l-.2-.2q-.2-.3-.3-.7-.2-.3-.4-.7-.1-.3-.3-.7-.1-.3-.3-.7-.2-.4-.4-.9t-.3-1q-.2-.4-.4-.9-.1-.5-.3-1-.3-.8-.7-1.5-.4-.8-.7-1.6-.4-.7-.8-1.5-.4-.7-.9-1.5c-1.4-2.8-2.2-4.2-2.2-4.3-.4-.8-.9-2.1-1.6-4-.4-1-.8-1.9-1-2.6l-.1 2.6-.1 4.1-.1 11.8-.1 9.4c0 .4-.1.6-.3.7l-.1.1h-1.3l-1.3.1q-.2 0-.4.1H44.8c-.6 0-.9-.1-1.1-.4v-.4q-.1-.2-.1-.4v-.8c0-1.3 0-2.6-.1-3.8l-.1-7.4c0-1.1 0-2.3.1-3.5.1-1.2.1-2.3.2-3.3.2-2.9.3-4.9.3-6.1l.1-11.3-.1-3.2v-1.2q.1-.3.1-.6l.2-.6q.1 0 .1-.1h.1q.1 0 .1-.1h.4q0 .1.1.1h.1q.1.1.2.1h.7c.4 0 .9-.1 1.5-.1h.9q.2 0 .4.1h.4c.4.1.6.4.8.9l.2.4q0 .2.1.4 0 .2.1.4v.7q.1.1.1.3v.3q.1.1.1.2zM108 43q.9.6 1.7 1.4.9.7 1.6 1.5.7.8 1.4 1.7.6.9 1.1 1.9.5.9 1 1.9.4 1 .8 1.9.4 1 .7 2.1l.6 2q.2.7.3 1.5.2.8.3 1.5l.2 1.6q.1.7.1 1.5 0 1.1-.1 2.2t-.2 2.1l-.4 2.2q-.2 1-.5 2.1-.3 1.3-.8 2.5t-1.1 2.4l-1.4 2.2q-.8 1-1.7 2-3.9 4.2-11.1 4.2c-6.6 0-11.4-3.9-14.2-11.6q-.5-1.4-.8-2.8-.4-1.5-.7-2.9l-.4-3q-.1-1.4-.2-2.9 0-1.3.1-2.6l.4-2.6q.3-1.2.7-2.5.4-1.2 1-2.4.5-1.1 1.1-2.2l1.4-2q.7-1 1.6-1.8.8-.9 1.8-1.7.8-.7 1.7-1.2.8-.5 1.8-.9t2-.6q1-.2 2-.2c2.3 0 4.1.1 5.2.2q.4.1.8.3.4.1.7.3.4.1.8.3.3.2.7.4zm-7.9 39.1q1.4.1 2.8-.3 1.4-.3 2.7-1 1.3-.7 2.3-1.7 1-1 1.7-2.3c2.1-3.5 3.1-8 3.1-13.3q0-1.2-.1-2.3-.1-1.2-.3-2.3-.1-1.2-.4-2.3-.3-1.1-.7-2.2-.3-.9-.7-1.8l-1-1.8q-.5-.8-1.1-1.6-.6-.8-1.3-1.5-.6-.6-1.3-1.1-.7-.5-1.5-.8-.8-.3-1.6-.5-.9-.1-1.7-.1h-2.2q-.2 0-.5.1-.3 0-.6.1-.2.1-.5.2-.2.1-.5.3-.2.1-.4.3-.2.1-.4.3l-.4.4q-1.9 1.9-3.3 3.6-.4.6-.8 1.1-.4.6-.7 1.3-.4.6-.7 1.2-.3.6-.5 1.3-.4.9-.6 1.8-.3.9-.5 1.9-.1.9-.2 1.9-.1.9-.1 1.9 0 1.2.1 2.4 0 1.2.2 2.3.1 1.2.4 2.4.2 1.2.5 2.3.2 1 .6 2 .4.9.9 1.8t1.1 1.7q.6.9 1.3 1.6.7.7 1.5 1.2t1.7.9q.9.3 1.8.5.9.1 1.9.1zm36.5-39.6c3.5 0 6.1.7 7.7 2q.3.3.7.5l.6.6q.4.2.7.5l.6.6c.4.3.6.6.6.8 0 .2-.1.3-.2.5s-.4.5-.7 1c-.3.5-.6.8-.8.8h-.2q-.1-.1-.2-.1t-.2-.1-.2-.1l-.4-.4q-4.5-3.3-7.8-3.3c-2.8 0-4.8.6-6.3 1.9q-.5.4-.9 1-.4.5-.7 1.2-.3.6-.4 1.3-.1.6-.1 1.3 0 .6.1 1.2.1.5.4 1.1.2.5.5 1 .4.5.8.9.5.5 1.1 1 .5.4 1.1.8l1.2.8q.6.4 1.2.7c.6.2 1.1.5 1.7.7q.7.3 1.3.5.7.3 1.3.6.7.3 1.3.6.7.4 1.3.7l1.2.8 1 1q.6.4 1 1 .5.5.9 1.1.5.7.8 1.5.4.8.6 1.7.2.8.3 1.7.1.8.1 1.7c0 4.5-1.5 7.6-4.6 9.3q-1.2.6-2.4 1.1-1.3.5-2.6.8-1.3.3-2.6.5-1.4.1-2.7.1-.8 0-1.6-.1-.7-.1-1.5-.3-.8-.2-1.5-.4-.7-.3-1.4-.7l-1-.6-1-.6q-.4-.3-.9-.7-.5-.3-.9-.7c-.4-.4-.5-.7-.3-1.1q.1-.1.1-.3.1-.1.1-.2.1-.1.2-.3 0-.1.1-.2c.3-.6.6-.8.8-.8H124.2v.1h.1l.1.1.1.1h.1q0 .1.1.1c.2.1.3.3.5.5q.3.3.7.5.4.3.8.5.4.3.8.4l.8.4q.4.2.9.4t.9.3l1 .2q.5.1 1 .1.8 0 1.6-.1t1.5-.2q.8-.2 1.5-.5.8-.2 1.5-.6c1.9-.9 2.9-2.8 2.9-5.7q0-.5-.1-.9-.1-.5-.3-.9-.2-.4-.5-.8-.3-.3-.7-.6-.6-.5-1.2-.9t-1.3-.8-1.3-.8q-.6-.4-1.3-.7l-2.6-1.4q-.9-.5-1.8-1.1-.9-.6-1.7-1.2-.9-.7-1.6-1.4-.8-.7-1.5-1.5-.6-.8-1.1-1.6-.5-.9-.8-1.8-.3-1-.4-1.9-.1-1-.1-2 0-.9.1-1.7.1-.9.4-1.7.3-.9.7-1.6.4-.8.9-1.5t1.1-1.3q.6-.6 1.3-1.1l1.4-1q.7-.4 1.5-.8.7-.4 1.5-.6.8-.3 1.6-.5t1.6-.3q.9-.1 1.7-.1zm42.6 2.4v.7c0 .9-.1 1.4-.2 1.4h-.4q-.1 0-.2-.1h-.2q-.1 0-.3-.1h-10.4l-7.4-.1c-.2 0-1.1.1-2.7.2l-1.4.1-.1 1.6c0 .6-.1 1.5-.1 2.8V52.7q0 .3.1.6v1.1q.1.3.1.5v4.6q.1.2.1.4c.4 0 .9.1 1.6.1H160.8q.2 0 .4-.1h.3q.3 0 .7-.1H164.2c.3 0 1.4.1 3.4.2l1.3.1h.7q.2 0 .4-.1h.3q.2 0 .4-.1h1.3l2 .1h.5q.3.1.6.1h1.8q.1-.1.2-.1l.4-.1h.2q.1 0 .1.1.1 0 .2.1.1 0 .1.1c.1.2.2.3.1.5s-.1.6-.1 1.1v.8q-.1.2-.1.3c-.1.3-.1.5-.2.6-.1.1-.3.1-.7.1l-2.4-.2c-3-.3-5-.4-5.9-.4-3.4 0-5.9.1-7.5.2q-.3 0-.5.1h-4.3q-.2-.1-.4-.1l-.2 1q0 .2-.1.5V67q0 .2.1.4v.4q0 .2.1.4v1.3l.1 7.1-.1 3c0 .4-.1.9-.1 1.5.5 0 1.3.1 2.3.1.8 0 2.1.1 3.9.1l3.2.1c.7 0 1.7.1 3.1.1.8 0 1.9 0 3.3-.1l2.5-.1H176q.3.1.6.1c.6 0 1.1.1 1.4.1H178.3q.1.1.2.1l.1.1c.1.1.1.4.1.8v.7q-.1.1-.1.2c0 .3-.1.6-.1 1v.2q0 .1-.1.1 0 .1-.1.2 0 .1-.1.1t-.2.1h-1.6q-.2-.1-.3-.1c-1.1-.1-3.3-.2-6.5-.2-2 0-3.4 0-4.3.1-.7 0-1.8.1-3.4.1l-5.6-.1c-.6 0-1.4-.1-2.3-.1h-.6q-.1-.1-.2-.1-.2 0-.3-.1l-.1-.1q-.1-.1-.1-.2-.1-.1-.1-.2v-.2l.1-1c0-.2.1-.3.1-.5v-.5q0-.1-.1-.2v-.2c0-.5-.1-1.3-.1-2.6s0-3.2-.1-5.9c-.1-2.2-.2-4.4-.2-6.5 0-.9.1-3.4.3-7.6l.1-2.5c0-.8.1-1.6.1-2.3 0-4.6-.1-7.7-.2-9.2-.1-1 .5-1.4 1.7-1.4h.8q.2 0 .4.1h.7q.2.1.4.1h.7l3.8-.1c2.7-.2 4.8-.2 6.3-.2 1.7 0 4.1 0 7.3.1 1 0 2.1.1 3.2.1.5 0 .8.1.9.4q.1.1.1.2V44.8c.3-.1.3.1.3.1zm18.2-2.4c3.5 0 6.1.7 7.7 2q.3.3.7.5l.6.6q.4.2.7.5l.6.6c.4.3.6.6.6.8 0 .2-.1.3-.2.5s-.4.5-.7 1c-.3.5-.6.8-.8.8h-.2q-.1-.1-.2-.1t-.2-.1-.2-.1l-.4-.4q-4.5-3.3-7.8-3.3c-2.8 0-4.9.6-6.3 1.9q-.5.4-.9 1-.4.5-.7 1.2-.3.6-.4 1.3-.1.6-.1 1.3 0 .6.1 1.2.1.5.4 1.1.2.5.5 1 .4.5.8.9.5.5 1.1 1 .5.4 1.1.8l1.2.8q.6.4 1.2.7c.6.2 1.1.5 1.7.7q.7.3 1.3.5.7.3 1.3.6.7.3 1.3.6.7.4 1.3.7l1.2.8q.5.4 1 .9t1 1.1q.4.5.8 1.1.5.7.8 1.5.4.8.6 1.7.2.8.3 1.7.1.8.1 1.7c0 4.5-1.5 7.6-4.6 9.3q-1.2.6-2.4 1.1-1.3.5-2.6.8-1.3.3-2.6.5-1.4.1-2.7.1-.8 0-1.6-.1-.7-.1-1.5-.3-.8-.2-1.5-.4-.7-.3-1.4-.7l-1-.6-1-.6q-.5-.3-.9-.7-.5-.3-.9-.7c-.4-.4-.5-.7-.3-1.1q.1-.1.1-.3.1-.1.1-.2.1-.1.2-.3 0-.1.1-.2c.3-.6.6-.8.8-.8H184.9v.1h.1l.1.1.1.1h.1q0 .1.1.1c.2.1.3.3.5.5q.3.3.7.5.4.3.8.5.4.3.8.4l.8.4q.4.2.9.4t.9.3l1 .2q.5.1 1 .1.8 0 1.6-.1t1.5-.2q.8-.2 1.5-.5.8-.2 1.5-.6c1.9-.9 2.9-2.8 2.9-5.7q0-.5-.1-.9-.1-.5-.3-.9-.2-.4-.5-.8-.3-.3-.7-.6-.6-.5-1.2-.9t-1.3-.8-1.3-.8q-.6-.4-1.3-.7l-2.6-1.4q-.9-.5-1.8-1.1-.9-.6-1.7-1.2-.9-.7-1.6-1.4-.8-.7-1.5-1.5-.6-.8-1.1-1.6-.5-.9-.8-1.8-.3-1-.4-1.9-.1-1-.1-2 0-.9.1-1.7.1-.9.4-1.7.3-.9.7-1.6.4-.8.9-1.5t1.1-1.3q.6-.6 1.3-1.1l1.4-1q.7-.4 1.5-.8t1.6-.6q.8-.3 1.6-.5t1.6-.3q.9-.1 1.7-.1z"/>
</svg>
